<svg width="52" height="54" viewBox="0 0 52 54" fill="none" xmlns="http://www.w3.org/2000/svg">
<path fill-rule="evenodd" clip-rule="evenodd" d="M38.7637 42.3098C42.89 38.5968 45.5 33.1149 45.5 27C45.5 15.8162 36.7696 6.75 26 6.75C15.2304 6.75 6.5 15.8162 6.5 27C6.5 33.1149 9.11002 38.5968 13.2363 42.3098C13.0823 41.7338 13 41.1269 13 40.5C13 36.7721 15.9101 33.75 19.5 33.75H32.5C36.0899 33.75 39 36.7721 39 40.5C39 41.1269 38.9177 41.7338 38.7637 42.3098ZM32.5 20.25C32.5 23.9779 29.5899 27 26 27C22.4101 27 19.5 23.9779 19.5 20.25C19.5 16.5221 22.4101 13.5 26 13.5C29.5899 13.5 32.5 16.5221 32.5 20.25Z" fill="black" fill-opacity="0.15"/>
<path d="M39 42.0937C39 38.4492 36.4613 33.7499 32.5 33.75H19.5C15.5387 33.7499 13 38.4492 13 42.0937M6.5 27C6.5 15.8162 15.2304 6.75 26 6.75C36.7696 6.75 45.5 15.8162 45.5 27C45.5 38.1838 36.7696 47.25 26 47.25C15.2304 47.25 6.5 38.1838 6.5 27ZM32.5 20.25C32.5 23.9779 29.5899 27 26 27C22.4101 27 19.5 23.9779 19.5 20.25C19.5 16.5221 22.4101 13.5 26 13.5C29.5899 13.5 32.5 16.5221 32.5 20.25Z" stroke="black" stroke-width="2" stroke-linecap="round" stroke-linejoin="round"/>
</svg>
